<mxfile host="65bd71144e" compressed="false">
    <diagram id="OSPF Multiárea Lab" name="OSPF Multiárea Lab">
        <mxGraphModel dx="1389" dy="636" grid="1" gridSize="10" guides="1" tooltips="1" connect="1" arrows="1" fold="1" page="1" pageScale="1" pageWidth="827" pageHeight="1169" math="0" shadow="1">
            <root>
                <mxCell id="0"/>
                <mxCell id="1" parent="0"/>
                <object label=" Area0" id="Area0">
                    <mxCell style="shape=rectangle;fillColor=#02C1D8;strokeColor=#000000;" parent="1" vertex="1">
                        <mxGeometry x="413" y="160" width="627" height="510" as="geometry"/>
                    </mxCell>
                </object>
                <object label=" R1" id="R1">
                    <mxCell style="shape=mxgraph.cisco.routers.router;html=1;fillColor=#036897;strokeColor=#ffffff;strokeWidth=2;" parent="1" vertex="1">
                        <mxGeometry x="480" y="170" width="80" height="80" as="geometry"/>
                    </mxCell>
                </object>
                <object label=" R2" id="R2">
                    <mxCell style="shape=mxgraph.cisco.routers.router;html=1;fillColor=#036897;strokeColor=#ffffff;strokeWidth=2;" parent="1" vertex="1">
                        <mxGeometry x="900" y="170" width="80" height="80" as="geometry"/>
                    </mxCell>
                </object>
                <object label=" R3" id="R3">
                    <mxCell style="shape=mxgraph.cisco.routers.router;html=1;fillColor=#036897;strokeColor=#ffffff;strokeWidth=2;" parent="1" vertex="1">
                        <mxGeometry x="900" y="481" width="80" height="80" as="geometry"/>
                    </mxCell>
                </object>
                <object label=" R4" id="R4">
                    <mxCell style="shape=mxgraph.cisco.routers.router;html=1;fillColor=#036897;strokeColor=#ffffff;strokeWidth=2;" parent="1" vertex="1">
                        <mxGeometry x="480" y="481" width="80" height="80" as="geometry"/>
                    </mxCell>
                </object>
                <object label="eth1-eth1 Area 1 (NSSA)" source="R1" target="R2" id="ad33d5f774567043f18d5cb3eb96e078">
                    <mxCell style="endArrow=block;html=1;strokeWidth=2;strokeColor=#000000;dashed=0;" parent="1" source="R1" target="R2" edge="1">
                        <mxGeometry relative="1" as="geometry"/>
                    </mxCell>
                </object>
                <object label="eth2-eth1 Area 0" source="R2" target="R3" id="e198fb39c8af61955dacb4e3f3784d16">
                    <mxCell style="endArrow=block;html=1;strokeWidth=2;strokeColor=#000000;dashed=0;" parent="1" source="R2" target="R3" edge="1">
                        <mxGeometry relative="1" as="geometry"/>
                    </mxCell>
                </object>
                <object label="eth2-eth1 Area 0" source="R3" target="R4" id="dfbdab2e1e5508019f37a7506719a498">
                    <mxCell style="endArrow=block;html=1;strokeWidth=2;strokeColor=#000000;dashed=0;" parent="1" source="R3" target="R4" edge="1">
                        <mxGeometry relative="1" as="geometry"/>
                    </mxCell>
                </object>
                <object label="eth2-eth2 Area 0" source="R1" target="R4" id="f260f15736cbc0b2702055b58a564a14">
                    <mxCell style="endArrow=block;html=1;strokeWidth=2;strokeColor=#000000;dashed=0;" parent="1" source="R1" target="R4" edge="1">
                        <mxGeometry relative="1" as="geometry"/>
                    </mxCell>
                </object>
                <object label="Auth: Cleartext Hello: 10s, Dead: 60s" id="R2-R3">
                    <mxCell style="shape=ellipse;fillColor=#f8cecc;strokeColor=#000000;" parent="1" vertex="1">
                        <mxGeometry x="820" y="320" width="60" height="40" as="geometry"/>
                    </mxCell>
                </object>
                <object label="" source="R2" target="R2-R3" id="76c7dadb36156536555a1bceed2a28fb">
                    <mxCell style="dashed=1;strokeColor=#000000;" parent="1" source="R2" target="R2-R3" edge="1">
                        <mxGeometry relative="1" as="geometry"/>
                    </mxCell>
                </object>
                <object label="" source="R2-R3" target="R3" id="f8c011b02bb071721772e69c4a301a6e">
                    <mxCell style="dashed=1;strokeColor=#000000;" parent="1" source="R2-R3" target="R3" edge="1">
                        <mxGeometry relative="1" as="geometry"/>
                    </mxCell>
                </object>
                <object label="Auth: MD5" id="R3-R4">
                    <mxCell style="shape=ellipse;fillColor=#f8cecc;strokeColor=#000000;" parent="1" vertex="1">
                        <mxGeometry x="696.5" y="450" width="60" height="40" as="geometry"/>
                    </mxCell>
                </object>
                <object label="" source="R3" target="R3-R4" id="93f80e3af33610f925702e666010f807">
                    <mxCell style="dashed=1;strokeColor=#000000;" parent="1" source="R3" target="R3-R4" edge="1">
                        <mxGeometry relative="1" as="geometry"/>
                    </mxCell>
                </object>
                <object label="" source="R3-R4" target="R4" id="025e9b65b270c62d0e9fc67bb5b779b7">
                    <mxCell style="dashed=1;strokeColor=#000000;" parent="1" source="R3-R4" target="R4" edge="1">
                        <mxGeometry relative="1" as="geometry"/>
                    </mxCell>
                </object>
                <object label="Area 2 Loopbacks 10.0.30.0/22" id="R4-LB">
                    <mxCell style="shape=rectangle;fillColor=#ff7e5f;strokeColor=#000000;" parent="1" vertex="1">
                        <mxGeometry x="900" y="580" width="100" height="60" as="geometry"/>
                    </mxCell>
                </object>
                <object label="Loopback14 10.0.34.1/24 (Rota Estática)" id="R4-LB14">
                    <mxCell style="shape=rectangle;fillColor=#ff7e5f;strokeColor=#000000;" parent="1" vertex="1">
                        <mxGeometry x="480" y="600" width="100" height="60" as="geometry"/>
                    </mxCell>
                </object>
                <object label="Static" source="R4" target="R4-LB14" id="562bbb8b2402eacac6eeaeeaa064c2ef">
                    <mxCell style="dashed=1;strokeColor=#000000;" parent="1" source="R4" target="R4-LB14" edge="1">
                        <mxGeometry relative="1" as="geometry"/>
                    </mxCell>
                </object>
            </root>
        </mxGraphModel>
    </diagram>
</mxfile>